<?xml version="1.0" standalone="no"?>
<!DOCTYPE svg PUBLIC "-//W3C//DTD SVG 20010904//EN"
 "http://www.w3.org/TR/2001/REC-SVG-20010904/DTD/svg10.dtd">
<svg version="1.0" xmlns="http://www.w3.org/2000/svg"
 width="4000.000000pt" height="4000.000000pt" viewBox="0 0 4000.000000 4000.000000"
 preserveAspectRatio="xMidYMid meet">

<g transform="translate(0.000000,4000.000000) scale(0.100000,-0.100000)"
fill="#e1e1e1" stroke="none">
<path d="M1436 39973 c32 -133 165 -190 276 -117 39 25 78 87 78 124 0 19 -5
20 -180 20 l-180 0 6 -27z"/>
<path d="M3430 39988 c1 -26 38 -94 66 -120 60 -55 162 -59 228 -7 30 24 66
88 66 119 0 19 -5 20 -180 20 -137 0 -180 -3 -180 -12z"/>
<path d="M5434 39983 c3 -10 8 -30 11 -44 9 -36 72 -94 118 -109 78 -25 174
19 208 93 36 80 42 77 -162 77 -167 0 -180 -1 -175 -17z"/>
<path d="M7430 39988 c1 -26 38 -94 66 -120 60 -55 162 -59 228 -7 30 24 66
88 66 119 0 19 -5 20 -180 20 -137 0 -180 -3 -180 -12z"/>
<path d="M9434 39983 c3 -10 8 -30 11 -44 4 -15 23 -43 43 -62 90 -88 232 -64
283 47 36 79 42 76 -162 76 -167 0 -180 -1 -175 -17z"/>
<path d="M11436 39973 c32 -133 165 -190 276 -117 39 25 78 87 78 124 0 19 -5
20 -180 20 l-180 0 6 -27z"/>
<path d="M13430 39988 c1 -26 38 -94 66 -120 60 -55 162 -59 228 -7 30 24 66
88 66 119 0 19 -5 20 -180 20 -137 0 -180 -3 -180 -12z"/>
<path d="M15434 39983 c3 -10 8 -30 11 -44 9 -36 72 -94 118 -109 78 -25 174
19 208 93 36 80 42 77 -162 77 -167 0 -180 -1 -175 -17z"/>
<path d="M17430 39988 c1 -26 38 -94 66 -119 61 -56 144 -61 216 -13 39 25 78
87 78 124 0 19 -5 20 -180 20 -137 0 -180 -3 -180 -12z"/>
<path d="M19434 39983 c3 -10 8 -30 11 -44 4 -15 23 -43 43 -62 90 -88 232
-64 283 47 36 79 42 76 -162 76 -167 0 -180 -1 -175 -17z"/>
<path d="M21436 39973 c32 -133 165 -190 276 -117 39 25 78 87 78 124 0 19 -5
20 -180 20 l-180 0 6 -27z"/>
<path d="M23430 39988 c1 -26 38 -94 66 -120 60 -55 162 -59 228 -7 30 24 66
88 66 119 0 19 -5 20 -180 20 -137 0 -180 -3 -180 -12z"/>
<path d="M25434 39983 c3 -10 8 -30 11 -44 9 -36 72 -94 118 -109 78 -25 174
19 208 93 36 80 42 77 -162 77 -167 0 -180 -1 -175 -17z"/>
<path d="M27430 39988 c1 -26 38 -94 66 -119 61 -56 144 -61 216 -13 39 25 78
87 78 124 0 19 -5 20 -180 20 -137 0 -180 -3 -180 -12z"/>
<path d="M29434 39983 c3 -10 8 -30 11 -44 4 -15 23 -43 43 -62 90 -88 232
-64 283 47 36 79 42 76 -162 76 -167 0 -180 -1 -175 -17z"/>
<path d="M31436 39973 c32 -133 165 -190 276 -117 39 25 78 87 78 124 0 19 -5
20 -180 20 l-180 0 6 -27z"/>
<path d="M33430 39988 c1 -26 38 -94 66 -120 60 -55 162 -59 228 -7 30 24 66
88 66 119 0 19 -5 20 -180 20 -137 0 -180 -3 -180 -12z"/>
<path d="M35434 39983 c3 -10 8 -30 11 -44 9 -36 72 -94 118 -109 78 -25 174
19 208 93 36 80 42 77 -162 77 -167 0 -180 -1 -175 -17z"/>
<path d="M37430 39988 c1 -26 38 -94 66 -119 61 -56 144 -61 216 -13 39 25 78
87 78 124 0 19 -5 20 -180 20 -137 0 -180 -3 -180 -12z"/>
<path d="M39436 39973 c13 -51 22 -68 53 -99 86 -84 225 -61 279 46 41 83 46
80 -158 80 l-180 0 6 -27z"/>
<path d="M533 38161 c-109 -50 -131 -191 -45 -282 90 -94 241 -65 288 56 59
155 -92 294 -243 226z"/>
<path d="M2534 38161 c-148 -67 -124 -290 36 -332 145 -38 269 116 201 249
-48 94 -141 127 -237 83z"/>
<path d="M4533 38161 c-45 -21 -87 -75 -98 -128 -16 -80 51 -183 135 -204 176
-45 295 178 163 303 -54 51 -127 62 -200 29z"/>
<path d="M6534 38161 c-148 -67 -124 -290 36 -332 145 -38 269 116 201 249
-48 94 -141 127 -237 83z"/>
<path d="M8534 38161 c-148 -67 -124 -290 36 -332 145 -38 269 116 201 249
-48 94 -141 127 -237 83z"/>
<path d="M10533 38161 c-109 -50 -131 -191 -45 -282 90 -94 241 -65 288 56 59
155 -92 294 -243 226z"/>
<path d="M12534 38161 c-148 -67 -124 -290 36 -332 145 -38 269 116 201 249
-48 94 -141 127 -237 83z"/>
<path d="M14533 38161 c-45 -21 -87 -75 -98 -128 -16 -80 51 -183 135 -204
176 -45 295 178 163 303 -54 51 -127 62 -200 29z"/>
<path d="M16534 38161 c-148 -67 -124 -290 36 -332 145 -38 269 116 201 249
-48 94 -141 127 -237 83z"/>
<path d="M18534 38161 c-148 -67 -124 -290 36 -332 145 -38 269 116 201 249
-48 94 -141 127 -237 83z"/>
<path d="M20533 38161 c-109 -50 -131 -191 -45 -282 90 -94 241 -65 288 56 59
155 -92 294 -243 226z"/>
<path d="M22534 38161 c-148 -67 -124 -290 36 -332 145 -38 269 116 201 249
-48 94 -141 127 -237 83z"/>
<path d="M24533 38161 c-45 -21 -87 -75 -98 -128 -16 -80 51 -183 135 -204
176 -45 295 178 163 303 -54 51 -127 62 -200 29z"/>
<path d="M26534 38161 c-148 -67 -124 -290 36 -332 145 -38 269 116 201 249
-48 94 -141 127 -237 83z"/>
<path d="M28534 38161 c-148 -67 -124 -290 36 -332 145 -38 269 116 201 249
-48 94 -141 127 -237 83z"/>
<path d="M30533 38161 c-109 -50 -131 -191 -45 -282 90 -94 241 -65 288 56 59
155 -92 294 -243 226z"/>
<path d="M32534 38161 c-148 -67 -124 -290 36 -332 145 -38 269 116 201 249
-48 94 -141 127 -237 83z"/>
<path d="M34533 38161 c-90 -41 -125 -157 -74 -246 28 -49 56 -71 113 -86 173
-46 293 178 161 303 -54 51 -127 62 -200 29z"/>
<path d="M36534 38161 c-148 -67 -124 -290 36 -332 145 -38 269 116 201 249
-48 94 -141 127 -237 83z"/>
<path d="M38534 38161 c-148 -67 -124 -290 36 -332 145 -38 269 116 201 249
-48 94 -141 127 -237 83z"/>
<path d="M1533 36161 c-107 -49 -131 -188 -47 -280 81 -90 229 -70 284 39 77
152 -80 312 -237 241z"/>
<path d="M3533 36161 c-79 -36 -120 -135 -89 -215 57 -150 255 -166 326 -25
77 151 -80 311 -237 240z"/>
<path d="M5534 36162 c-144 -68 -126 -282 29 -332 118 -37 239 67 224 196 -13
115 -145 186 -253 136z"/>
<path d="M7533 36161 c-79 -36 -120 -135 -89 -215 57 -150 255 -166 326 -25
77 151 -80 311 -237 240z"/>
<path d="M9534 36161 c-110 -50 -134 -198 -46 -284 90 -88 232 -64 283 47 56
123 -30 257 -165 256 -17 0 -49 -9 -72 -19z"/>
<path d="M11533 36161 c-107 -49 -131 -188 -47 -280 81 -90 229 -70 284 39 77
152 -80 312 -237 241z"/>
<path d="M13533 36161 c-79 -36 -120 -135 -89 -215 57 -150 255 -166 326 -25
77 151 -80 311 -237 240z"/>
<path d="M15534 36162 c-144 -68 -126 -282 29 -332 118 -37 239 67 224 196
-13 115 -145 186 -253 136z"/>
<path d="M17533 36161 c-48 -22 -88 -77 -99 -134 -19 -107 96 -222 204 -202
119 21 186 149 133 253 -47 92 -143 125 -238 83z"/>
<path d="M19534 36161 c-110 -50 -134 -198 -46 -284 90 -88 232 -64 283 47 56
123 -30 257 -165 256 -17 0 -49 -9 -72 -19z"/>
<path d="M21533 36161 c-107 -49 -131 -188 -47 -280 81 -90 229 -70 284 39 77
152 -80 312 -237 241z"/>
<path d="M23533 36161 c-79 -36 -120 -135 -89 -215 57 -150 255 -166 326 -25
77 151 -80 311 -237 240z"/>
<path d="M25534 36162 c-144 -68 -126 -282 29 -332 118 -37 239 67 224 196
-13 115 -145 186 -253 136z"/>
<path d="M27533 36161 c-48 -22 -88 -77 -99 -134 -19 -107 96 -222 204 -202
119 21 186 149 133 253 -47 92 -143 125 -238 83z"/>
<path d="M29534 36161 c-110 -50 -134 -198 -46 -284 90 -88 232 -64 283 47 56
123 -30 257 -165 256 -17 0 -49 -9 -72 -19z"/>
<path d="M31533 36161 c-107 -49 -131 -188 -47 -280 81 -90 229 -70 284 39 77
152 -80 312 -237 241z"/>
<path d="M33533 36161 c-79 -36 -120 -135 -89 -215 57 -150 255 -166 326 -25
77 151 -80 311 -237 240z"/>
<path d="M35534 36162 c-144 -68 -126 -282 29 -332 118 -37 239 67 224 196
-13 115 -145 186 -253 136z"/>
<path d="M37533 36161 c-48 -22 -88 -77 -99 -134 -19 -107 96 -222 204 -202
119 21 186 149 133 253 -47 92 -143 125 -238 83z"/>
<path d="M39534 36161 c-109 -49 -134 -198 -48 -284 87 -87 227 -66 282 43 77
154 -76 313 -234 241z"/>
<path d="M533 34161 c-107 -49 -131 -188 -48 -280 86 -95 245 -66 290 53 60
156 -90 295 -242 227z"/>
<path d="M2534 34161 c-148 -67 -124 -290 36 -332 145 -38 269 116 201 249
-48 94 -141 127 -237 83z"/>
<path d="M4533 34161 c-45 -21 -87 -75 -98 -128 -16 -80 51 -183 135 -204 176
-45 295 178 163 303 -54 51 -127 62 -200 29z"/>
<path d="M6534 34161 c-148 -67 -124 -290 36 -332 145 -38 269 116 201 249
-48 94 -141 127 -237 83z"/>
<path d="M8534 34161 c-148 -67 -124 -290 36 -332 145 -38 269 116 201 249
-48 94 -141 127 -237 83z"/>
<path d="M10533 34161 c-107 -49 -131 -188 -48 -280 86 -95 245 -66 290 53 60
156 -90 295 -242 227z"/>
<path d="M12534 34161 c-148 -67 -124 -290 36 -332 145 -38 269 116 201 249
-48 94 -141 127 -237 83z"/>
<path d="M14533 34161 c-45 -21 -87 -75 -98 -128 -16 -80 51 -183 135 -204
176 -45 295 178 163 303 -54 51 -127 62 -200 29z"/>
<path d="M16534 34161 c-148 -67 -124 -290 36 -332 145 -38 269 116 201 249
-48 94 -141 127 -237 83z"/>
<path d="M18534 34161 c-148 -67 -124 -290 36 -332 145 -38 269 116 201 249
-48 94 -141 127 -237 83z"/>
<path d="M20533 34161 c-107 -49 -131 -188 -48 -280 86 -95 245 -66 290 53 60
156 -90 295 -242 227z"/>
<path d="M22534 34161 c-145 -66 -126 -282 29 -331 142 -45 276 115 208 248
-48 94 -141 127 -237 83z"/>
<path d="M24533 34161 c-45 -21 -87 -75 -98 -128 -16 -80 51 -183 135 -204
176 -45 295 178 163 303 -54 51 -127 62 -200 29z"/>
<path d="M26534 34161 c-148 -67 -124 -290 36 -332 145 -38 269 116 201 249
-48 94 -141 127 -237 83z"/>
<path d="M28534 34161 c-148 -67 -124 -290 36 -332 145 -38 269 116 201 249
-48 94 -141 127 -237 83z"/>
<path d="M30533 34161 c-107 -49 -131 -188 -48 -280 86 -95 245 -66 290 53 60
156 -90 295 -242 227z"/>
<path d="M32534 34161 c-145 -66 -126 -282 29 -331 142 -45 276 115 208 248
-48 94 -141 127 -237 83z"/>
<path d="M34533 34161 c-45 -21 -87 -75 -98 -128 -16 -80 51 -183 135 -204
176 -45 295 178 163 303 -54 51 -127 62 -200 29z"/>
<path d="M36534 34161 c-148 -67 -124 -290 36 -332 145 -38 269 116 201 249
-48 94 -141 127 -237 83z"/>
<path d="M38534 34161 c-148 -67 -124 -290 36 -332 145 -38 269 116 201 249
-48 94 -141 127 -237 83z"/>
<path d="M1533 32161 c-107 -49 -131 -188 -47 -280 81 -90 229 -70 284 39 78
152 -79 312 -237 241z"/>
<path d="M3533 32161 c-79 -36 -120 -135 -89 -215 57 -150 255 -166 326 -25
78 151 -80 311 -237 240z"/>
<path d="M5534 32161 c-110 -50 -134 -199 -46 -283 69 -66 155 -73 231 -18 77
56 93 174 34 248 -56 70 -138 90 -219 53z"/>
<path d="M7533 32161 c-79 -36 -120 -135 -89 -215 57 -150 255 -166 326 -25
77 151 -80 311 -237 240z"/>
<path d="M9534 32161 c-110 -50 -134 -198 -46 -284 90 -88 232 -64 283 47 71
156 -81 308 -237 237z"/>
<path d="M11533 32161 c-107 -49 -131 -188 -47 -280 81 -90 229 -70 284 39 78
152 -79 312 -237 241z"/>
<path d="M13533 32161 c-79 -36 -120 -135 -89 -215 57 -150 255 -166 326 -25
78 151 -80 311 -237 240z"/>
<path d="M15534 32162 c-144 -68 -126 -282 29 -332 118 -37 239 67 224 196
-13 115 -145 186 -253 136z"/>
<path d="M17533 32161 c-48 -22 -88 -77 -99 -134 -19 -107 96 -222 204 -202
119 21 186 149 133 253 -47 92 -143 125 -238 83z"/>
<path d="M19534 32161 c-110 -50 -134 -198 -46 -284 90 -88 232 -64 283 47 71
156 -81 308 -237 237z"/>
<path d="M21533 32161 c-107 -49 -131 -188 -47 -280 81 -90 229 -70 284 39 78
152 -79 312 -237 241z"/>
<path d="M23533 32161 c-79 -36 -120 -135 -89 -215 57 -150 255 -166 326 -25
78 151 -80 311 -237 240z"/>
<path d="M25534 32162 c-144 -68 -126 -282 29 -332 118 -37 239 67 224 196
-13 115 -145 186 -253 136z"/>
<path d="M27533 32161 c-48 -22 -88 -77 -99 -134 -19 -107 96 -222 204 -202
119 21 186 149 133 253 -47 92 -143 125 -238 83z"/>
<path d="M29534 32161 c-110 -50 -134 -198 -46 -284 90 -88 232 -64 283 47 71
156 -81 308 -237 237z"/>
<path d="M31533 32161 c-107 -49 -131 -188 -47 -280 81 -90 229 -70 284 39 78
152 -79 312 -237 241z"/>
<path d="M33533 32161 c-79 -36 -120 -135 -89 -215 57 -150 255 -166 326 -25
78 151 -80 311 -237 240z"/>
<path d="M35534 32162 c-144 -68 -126 -282 29 -332 118 -37 239 67 224 196
-13 115 -145 186 -253 136z"/>
<path d="M37533 32161 c-48 -22 -88 -77 -99 -134 -19 -107 96 -222 204 -202
119 21 186 149 133 253 -47 92 -143 125 -238 83z"/>
<path d="M39534 32161 c-109 -49 -134 -198 -48 -284 87 -87 227 -66 282 43 78
155 -75 313 -234 241z"/>
<path d="M534 30161 c-110 -50 -134 -198 -46 -284 94 -91 242 -61 288 58 58
154 -92 294 -242 226z"/>
<path d="M2534 30161 c-148 -67 -124 -290 36 -332 145 -38 269 116 201 249
-48 94 -141 127 -237 83z"/>
<path d="M4533 30161 c-45 -21 -87 -75 -98 -128 -16 -80 51 -183 135 -204 176
-45 295 178 163 303 -54 51 -127 62 -200 29z"/>
<path d="M6534 30161 c-148 -67 -124 -290 36 -332 145 -38 269 116 201 249
-48 94 -141 127 -237 83z"/>
<path d="M8534 30161 c-148 -67 -124 -290 36 -332 145 -38 269 116 201 249
-48 94 -141 127 -237 83z"/>
<path d="M10534 30161 c-110 -50 -134 -199 -46 -283 69 -66 155 -73 231 -18
77 56 93 174 34 248 -56 71 -137 90 -219 53z"/>
<path d="M12534 30161 c-148 -67 -124 -290 36 -332 145 -38 269 116 201 249
-48 94 -141 127 -237 83z"/>
<path d="M14533 30161 c-45 -21 -87 -75 -98 -128 -16 -80 51 -183 135 -204
176 -45 295 178 163 303 -54 51 -127 62 -200 29z"/>
<path d="M16534 30161 c-148 -67 -124 -290 36 -332 145 -38 269 116 201 249
-48 94 -141 127 -237 83z"/>
<path d="M18534 30161 c-148 -67 -124 -290 36 -332 145 -38 269 116 201 249
-48 94 -141 127 -237 83z"/>
<path d="M20534 30161 c-110 -50 -134 -199 -46 -283 69 -66 155 -73 231 -18
77 56 93 174 34 248 -56 71 -137 90 -219 53z"/>
<path d="M22534 30161 c-148 -67 -124 -290 36 -332 145 -38 269 116 201 249
-48 94 -141 127 -237 83z"/>
<path d="M24533 30161 c-45 -21 -87 -75 -98 -128 -16 -80 51 -183 135 -204
176 -45 295 178 163 303 -54 51 -127 62 -200 29z"/>
<path d="M26534 30161 c-148 -67 -124 -290 36 -332 145 -38 269 116 201 249
-48 94 -141 127 -237 83z"/>
<path d="M28534 30161 c-148 -67 -124 -290 36 -332 145 -38 269 116 201 249
-48 94 -141 127 -237 83z"/>
<path d="M30534 30161 c-110 -50 -134 -199 -46 -283 69 -66 155 -73 231 -18
77 56 93 174 34 248 -56 71 -137 90 -219 53z"/>
<path d="M32534 30161 c-148 -67 -124 -290 36 -332 145 -38 269 116 201 249
-48 94 -141 127 -237 83z"/>
<path d="M34533 30161 c-45 -21 -87 -75 -98 -128 -16 -80 51 -183 135 -204
176 -45 295 178 163 303 -54 51 -127 62 -200 29z"/>
<path d="M36534 30161 c-148 -67 -124 -290 36 -332 145 -38 269 116 201 249
-48 94 -141 127 -237 83z"/>
<path d="M38534 30161 c-148 -67 -124 -290 36 -332 145 -38 269 116 201 249
-48 94 -141 127 -237 83z"/>
<path d="M1533 28161 c-107 -49 -131 -188 -47 -280 81 -90 229 -70 284 39 78
152 -79 312 -237 241z"/>
<path d="M3533 28161 c-79 -36 -120 -135 -89 -215 57 -150 255 -166 326 -25
78 151 -80 311 -237 240z"/>
<path d="M5534 28161 c-110 -50 -134 -199 -46 -283 69 -66 155 -73 231 -18 77
56 93 174 34 248 -56 70 -138 90 -219 53z"/>
<path d="M7533 28161 c-79 -36 -120 -135 -89 -215 57 -150 255 -166 326 -25
77 151 -80 311 -237 240z"/>
<path d="M9534 28161 c-109 -49 -134 -198 -48 -284 87 -87 227 -66 282 43 78
155 -75 313 -234 241z"/>
<path d="M11533 28161 c-107 -49 -131 -188 -47 -280 81 -90 229 -70 284 39 78
152 -79 312 -237 241z"/>
<path d="M13533 28161 c-79 -36 -120 -135 -89 -215 57 -150 255 -166 326 -25
78 151 -80 311 -237 240z"/>
<path d="M15534 28162 c-144 -68 -126 -282 29 -332 118 -37 239 67 224 196
-13 115 -145 186 -253 136z"/>
<path d="M17533 28161 c-48 -22 -88 -77 -99 -134 -19 -107 96 -222 204 -202
119 21 186 149 133 253 -47 92 -143 125 -238 83z"/>
<path d="M19534 28161 c-109 -49 -134 -198 -48 -284 87 -87 227 -66 282 43 78
155 -75 313 -234 241z"/>
<path d="M21533 28161 c-107 -49 -131 -188 -47 -280 81 -90 229 -70 284 39 78
152 -79 312 -237 241z"/>
<path d="M23533 28161 c-79 -36 -120 -135 -89 -215 57 -150 255 -166 326 -25
78 151 -80 311 -237 240z"/>
<path d="M25534 28162 c-144 -68 -126 -282 29 -332 118 -37 239 67 224 196
-13 115 -145 186 -253 136z"/>
<path d="M27533 28161 c-48 -22 -88 -77 -99 -134 -19 -107 96 -222 204 -202
119 21 186 149 133 253 -47 92 -143 125 -238 83z"/>
<path d="M29534 28161 c-109 -49 -134 -198 -48 -284 87 -87 227 -66 282 43 78
155 -75 313 -234 241z"/>
<path d="M31533 28161 c-107 -49 -131 -188 -47 -280 81 -90 229 -70 284 39 78
152 -79 312 -237 241z"/>
<path d="M33533 28161 c-79 -36 -120 -135 -89 -215 57 -150 255 -166 326 -25
78 151 -80 311 -237 240z"/>
<path d="M35534 28162 c-144 -68 -126 -282 29 -332 118 -37 239 67 224 196
-13 115 -145 186 -253 136z"/>
<path d="M37533 28161 c-48 -22 -88 -77 -99 -134 -19 -107 96 -222 204 -202
119 21 186 149 133 253 -47 92 -143 125 -238 83z"/>
<path d="M39534 28161 c-109 -49 -134 -198 -48 -284 87 -87 227 -66 282 43 78
155 -75 313 -234 241z"/>
<path d="M533 26161 c-109 -50 -131 -191 -45 -282 90 -94 241 -65 288 56 59
155 -92 294 -243 226z"/>
<path d="M2534 26161 c-148 -67 -124 -290 36 -332 145 -38 269 116 201 249
-48 94 -141 127 -237 83z"/>
<path d="M4533 26161 c-90 -41 -125 -157 -74 -246 28 -49 56 -71 113 -86 81
-21 164 18 199 95 24 53 24 107 0 154 -49 94 -141 127 -238 83z"/>
<path d="M6534 26161 c-148 -67 -124 -290 36 -332 145 -38 269 116 201 249
-48 94 -141 127 -237 83z"/>
<path d="M8534 26161 c-148 -67 -124 -290 36 -332 145 -38 269 116 201 249
-48 94 -141 127 -237 83z"/>
<path d="M10533 26161 c-109 -50 -131 -191 -45 -282 90 -94 241 -65 288 56 59
155 -92 294 -243 226z"/>
<path d="M12534 26161 c-148 -67 -124 -290 36 -332 145 -38 269 116 201 249
-48 94 -141 127 -237 83z"/>
<path d="M14533 26161 c-90 -41 -125 -157 -74 -246 28 -49 56 -71 113 -86 81
-21 164 18 199 95 24 53 24 107 0 154 -49 94 -141 127 -238 83z"/>
<path d="M16534 26161 c-148 -67 -124 -290 36 -332 145 -38 269 116 201 249
-48 94 -141 127 -237 83z"/>
<path d="M18534 26161 c-148 -67 -124 -290 36 -332 145 -38 269 116 201 249
-48 94 -141 127 -237 83z"/>
<path d="M20533 26161 c-109 -50 -131 -191 -45 -282 90 -94 241 -65 288 56 59
155 -92 294 -243 226z"/>
<path d="M22534 26161 c-148 -67 -124 -290 36 -332 145 -38 269 116 201 249
-48 94 -141 127 -237 83z"/>
<path d="M24533 26161 c-90 -41 -125 -157 -74 -246 28 -49 56 -71 113 -86 81
-21 164 18 199 95 24 53 24 107 0 154 -49 94 -141 127 -238 83z"/>
<path d="M26534 26161 c-148 -67 -124 -290 36 -332 145 -38 269 116 201 249
-48 94 -141 127 -237 83z"/>
<path d="M28534 26161 c-148 -67 -124 -290 36 -332 145 -38 269 116 201 249
-48 94 -141 127 -237 83z"/>
<path d="M30533 26161 c-109 -50 -131 -191 -45 -282 90 -94 241 -65 288 56 59
155 -92 294 -243 226z"/>
<path d="M32534 26161 c-148 -67 -124 -290 36 -332 145 -38 269 116 201 249
-48 94 -141 127 -237 83z"/>
<path d="M34533 26161 c-90 -41 -125 -157 -74 -246 28 -49 56 -71 113 -86 81
-21 164 18 199 95 24 53 24 107 0 154 -49 94 -141 127 -238 83z"/>
<path d="M36534 26161 c-148 -67 -124 -290 36 -332 145 -38 269 116 201 249
-48 94 -141 127 -237 83z"/>
<path d="M38534 26161 c-148 -67 -124 -290 36 -332 145 -38 269 116 201 249
-48 94 -141 127 -237 83z"/>
<path d="M1533 24161 c-107 -49 -131 -188 -47 -280 81 -90 229 -70 284 39 77
152 -80 312 -237 241z"/>
<path d="M3533 24161 c-79 -36 -120 -135 -89 -215 57 -150 255 -166 326 -25
77 151 -80 311 -237 240z"/>
<path d="M5534 24162 c-144 -68 -126 -282 29 -332 118 -37 239 67 224 196 -13
115 -145 186 -253 136z"/>
<path d="M7533 24161 c-109 -50 -131 -191 -45 -282 86 -90 226 -69 282 42 77
151 -80 311 -237 240z"/>
<path d="M9534 24161 c-109 -49 -134 -198 -48 -284 87 -87 227 -66 282 43 77
154 -76 313 -234 241z"/>
<path d="M11533 24161 c-107 -49 -131 -188 -47 -280 81 -90 229 -70 284 39 77
152 -80 312 -237 241z"/>
<path d="M13533 24161 c-79 -36 -120 -135 -89 -215 57 -150 255 -166 326 -25
77 151 -80 311 -237 240z"/>
<path d="M15534 24162 c-144 -68 -126 -282 29 -332 118 -37 239 67 224 196
-13 115 -145 186 -253 136z"/>
<path d="M17533 24161 c-107 -49 -131 -188 -47 -280 81 -90 229 -70 284 39 77
152 -80 312 -237 241z"/>
<path d="M19534 24161 c-109 -49 -134 -198 -48 -284 87 -87 227 -66 282 43 77
154 -76 313 -234 241z"/>
<path d="M21533 24161 c-107 -49 -131 -188 -47 -280 81 -90 229 -70 284 39 77
152 -80 312 -237 241z"/>
<path d="M23533 24161 c-79 -36 -120 -135 -89 -215 57 -150 255 -166 326 -25
77 151 -80 311 -237 240z"/>
<path d="M25534 24162 c-144 -68 -126 -282 29 -332 118 -37 239 67 224 196
-13 115 -145 186 -253 136z"/>
<path d="M27533 24161 c-107 -49 -131 -188 -47 -280 81 -90 229 -70 284 39 77
152 -80 312 -237 241z"/>
<path d="M29534 24161 c-109 -49 -134 -198 -48 -284 87 -87 227 -66 282 43 77
154 -76 313 -234 241z"/>
<path d="M31533 24161 c-107 -49 -131 -188 -47 -280 81 -90 229 -70 284 39 77
152 -80 312 -237 241z"/>
<path d="M33533 24161 c-79 -36 -120 -135 -89 -215 57 -150 255 -166 326 -25
77 151 -80 311 -237 240z"/>
<path d="M35534 24162 c-144 -68 -126 -282 29 -332 118 -37 239 67 224 196
-13 115 -145 186 -253 136z"/>
<path d="M37533 24161 c-107 -49 -131 -188 -47 -280 81 -90 229 -70 284 39 77
152 -80 312 -237 241z"/>
<path d="M39534 24161 c-109 -49 -134 -198 -48 -284 87 -87 227 -66 282 43 77
154 -76 313 -234 241z"/>
<path d="M533 22161 c-109 -50 -131 -191 -45 -282 90 -94 241 -65 288 56 59
155 -92 294 -243 226z"/>
<path d="M2534 22161 c-148 -67 -124 -290 36 -332 145 -38 269 116 201 249
-48 94 -141 127 -237 83z"/>
<path d="M4533 22161 c-109 -50 -131 -191 -45 -282 87 -91 232 -68 283 45 24
53 24 107 0 154 -49 94 -141 127 -238 83z"/>
<path d="M6534 22161 c-148 -67 -124 -290 36 -332 145 -38 269 116 201 249
-48 94 -141 127 -237 83z"/>
<path d="M8534 22161 c-148 -67 -124 -290 36 -332 145 -38 269 116 201 249
-48 94 -141 127 -237 83z"/>
<path d="M10533 22161 c-109 -50 -131 -191 -45 -282 90 -94 241 -65 288 56 59
155 -92 294 -243 226z"/>
<path d="M12534 22161 c-148 -67 -124 -290 36 -332 145 -38 269 116 201 249
-48 94 -141 127 -237 83z"/>
<path d="M14533 22161 c-109 -50 -131 -191 -45 -282 87 -91 232 -68 283 45 24
53 24 107 0 154 -49 94 -141 127 -238 83z"/>
<path d="M16534 22161 c-148 -67 -124 -290 36 -332 145 -38 269 116 201 249
-48 94 -141 127 -237 83z"/>
<path d="M18534 22161 c-148 -67 -124 -290 36 -332 145 -38 269 116 201 249
-48 94 -141 127 -237 83z"/>
<path d="M20533 22161 c-109 -50 -131 -191 -45 -282 90 -94 241 -65 288 56 59
155 -92 294 -243 226z"/>
<path d="M22534 22161 c-148 -67 -124 -290 36 -332 145 -38 269 116 201 249
-48 94 -141 127 -237 83z"/>
<path d="M24533 22161 c-109 -50 -131 -191 -45 -282 87 -91 232 -68 283 45 24
53 24 107 0 154 -49 94 -141 127 -238 83z"/>
<path d="M26534 22161 c-148 -67 -124 -290 36 -332 145 -38 269 116 201 249
-48 94 -141 127 -237 83z"/>
<path d="M28534 22161 c-148 -67 -124 -290 36 -332 145 -38 269 116 201 249
-48 94 -141 127 -237 83z"/>
<path d="M30533 22161 c-109 -50 -131 -191 -45 -282 90 -94 241 -65 288 56 59
155 -92 294 -243 226z"/>
<path d="M32534 22161 c-148 -67 -124 -290 36 -332 145 -38 269 116 201 249
-48 94 -141 127 -237 83z"/>
<path d="M34533 22161 c-90 -41 -125 -157 -74 -246 28 -49 56 -71 113 -86 81
-21 164 18 199 95 24 53 24 107 0 154 -49 94 -141 127 -238 83z"/>
<path d="M36534 22161 c-148 -67 -124 -290 36 -332 145 -38 269 116 201 249
-48 94 -141 127 -237 83z"/>
<path d="M38534 22161 c-148 -67 -124 -290 36 -332 145 -38 269 116 201 249
-48 94 -141 127 -237 83z"/>
<path d="M1533 20161 c-107 -49 -131 -188 -47 -280 81 -90 229 -70 284 39 78
152 -79 312 -237 241z"/>
<path d="M3533 20161 c-79 -36 -120 -135 -89 -215 57 -150 255 -166 326 -25
78 151 -80 311 -237 240z"/>
<path d="M5533 20161 c-107 -49 -131 -188 -48 -280 86 -95 245 -66 290 53 59
155 -91 295 -242 227z"/>
<path d="M7533 20161 c-48 -22 -88 -77 -99 -134 -13 -77 48 -171 129 -197 139
-44 276 114 211 243 -49 97 -144 132 -241 88z"/>
<path d="M9534 20161 c-110 -50 -134 -198 -46 -284 90 -88 232 -64 283 47 24
53 24 107 0 154 -47 91 -144 125 -237 83z"/>
<path d="M11533 20161 c-107 -49 -131 -188 -47 -280 81 -90 229 -70 284 39 78
152 -79 312 -237 241z"/>
<path d="M13533 20161 c-48 -22 -88 -77 -99 -134 -13 -77 48 -171 129 -197
139 -44 276 114 211 243 -49 97 -144 132 -241 88z"/>
<path d="M15533 20161 c-107 -49 -131 -188 -48 -280 86 -95 245 -66 290 53 59
155 -91 295 -242 227z"/>
<path d="M17533 20161 c-48 -22 -88 -77 -99 -134 -13 -77 48 -171 129 -197
139 -44 276 114 211 243 -49 97 -144 132 -241 88z"/>
<path d="M19534 20161 c-110 -50 -134 -198 -46 -284 90 -88 232 -64 283 47 24
53 24 107 0 154 -47 91 -144 125 -237 83z"/>
<path d="M21533 20161 c-107 -49 -131 -188 -47 -280 81 -90 229 -70 284 39 78
152 -79 312 -237 241z"/>
<path d="M23533 20161 c-48 -22 -88 -77 -99 -134 -13 -77 48 -171 129 -197
139 -44 276 114 211 243 -49 97 -144 132 -241 88z"/>
<path d="M25533 20161 c-107 -49 -131 -188 -48 -280 86 -95 245 -66 290 53 59
155 -91 295 -242 227z"/>
<path d="M27533 20161 c-48 -22 -88 -77 -99 -134 -13 -77 48 -171 129 -197
139 -44 276 114 211 243 -49 97 -144 132 -241 88z"/>
<path d="M29534 20161 c-110 -50 -134 -198 -46 -284 90 -88 232 -64 283 47 24
53 24 107 0 154 -47 91 -144 125 -237 83z"/>
<path d="M31533 20161 c-107 -49 -131 -188 -47 -280 81 -90 229 -70 284 39 78
152 -79 312 -237 241z"/>
<path d="M33533 20161 c-48 -22 -88 -77 -99 -134 -13 -77 48 -171 129 -197
139 -44 276 114 211 243 -49 97 -144 132 -241 88z"/>
<path d="M35533 20161 c-107 -49 -131 -188 -48 -280 86 -95 245 -66 290 53 59
155 -91 295 -242 227z"/>
<path d="M37533 20161 c-48 -22 -88 -77 -99 -134 -13 -77 48 -171 129 -197
139 -44 276 114 211 243 -49 97 -144 132 -241 88z"/>
<path d="M39534 20161 c-110 -50 -134 -198 -46 -284 90 -88 232 -64 283 47 24
53 24 107 0 154 -47 91 -144 125 -237 83z"/>
<path d="M534 18161 c-110 -50 -134 -199 -46 -283 69 -66 155 -73 231 -18 77
56 93 174 34 248 -56 71 -137 90 -219 53z"/>
<path d="M2534 18161 c-145 -66 -126 -282 29 -331 142 -45 276 115 208 248
-48 94 -141 127 -237 83z"/>
<path d="M4534 18161 c-110 -50 -134 -198 -46 -284 90 -88 232 -64 283 47 71
156 -81 308 -237 237z"/>
<path d="M6534 18161 c-148 -67 -124 -290 36 -332 145 -38 269 116 201 249
-48 94 -141 127 -237 83z"/>
<path d="M8534 18161 c-148 -67 -124 -290 36 -332 145 -38 269 116 201 249
-48 94 -141 127 -237 83z"/>
<path d="M10534 18161 c-110 -50 -134 -199 -46 -283 69 -66 155 -73 231 -18
77 56 93 174 34 248 -56 71 -137 90 -219 53z"/>
<path d="M12534 18161 c-145 -66 -126 -282 29 -331 142 -45 276 115 208 248
-48 94 -141 127 -237 83z"/>
<path d="M14534 18161 c-110 -50 -134 -198 -46 -284 90 -88 232 -64 283 47 71
156 -81 308 -237 237z"/>
<path d="M16534 18161 c-148 -67 -124 -290 36 -332 145 -38 269 116 201 249
-48 94 -141 127 -237 83z"/>
<path d="M18534 18161 c-148 -67 -124 -290 36 -332 145 -38 269 116 201 249
-48 94 -141 127 -237 83z"/>
<path d="M20534 18161 c-110 -50 -134 -199 -46 -283 69 -66 155 -73 231 -18
77 56 93 174 34 248 -56 71 -137 90 -219 53z"/>
<path d="M22534 18161 c-145 -66 -126 -282 29 -331 142 -45 276 115 208 248
-48 94 -141 127 -237 83z"/>
<path d="M24534 18161 c-110 -50 -134 -198 -46 -284 90 -88 232 -64 283 47 71
156 -81 308 -237 237z"/>
<path d="M26534 18161 c-148 -67 -124 -290 36 -332 145 -38 269 116 201 249
-48 94 -141 127 -237 83z"/>
<path d="M28534 18161 c-148 -67 -124 -290 36 -332 145 -38 269 116 201 249
-48 94 -141 127 -237 83z"/>
<path d="M30534 18161 c-110 -50 -134 -199 -46 -283 69 -66 155 -73 231 -18
77 56 93 174 34 248 -56 71 -137 90 -219 53z"/>
<path d="M32534 18161 c-145 -66 -126 -282 29 -331 142 -45 276 115 208 248
-48 94 -141 127 -237 83z"/>
<path d="M34533 18161 c-109 -50 -131 -191 -45 -282 87 -91 232 -68 283 45 71
157 -81 308 -238 237z"/>
<path d="M36534 18161 c-148 -67 -124 -290 36 -332 145 -38 269 116 201 249
-48 94 -141 127 -237 83z"/>
<path d="M38534 18161 c-148 -67 -124 -290 36 -332 145 -38 269 116 201 249
-48 94 -141 127 -237 83z"/>
<path d="M1533 16161 c-107 -49 -131 -188 -47 -280 81 -90 229 -70 284 39 77
152 -80 312 -237 241z"/>
<path d="M3533 16161 c-79 -36 -120 -135 -89 -215 57 -150 255 -166 326 -25
78 151 -80 311 -237 240z"/>
<path d="M5534 16162 c-144 -68 -126 -282 29 -332 118 -37 239 67 224 196 -13
115 -145 186 -253 136z"/>
<path d="M7533 16161 c-79 -36 -120 -135 -89 -215 57 -150 255 -166 326 -25
78 151 -80 311 -237 240z"/>
<path d="M9534 16161 c-109 -49 -134 -198 -48 -284 87 -87 227 -66 282 43 78
155 -75 313 -234 241z"/>
<path d="M11533 16161 c-107 -49 -131 -188 -47 -280 81 -90 229 -70 284 39 77
152 -80 312 -237 241z"/>
<path d="M13533 16161 c-79 -36 -120 -135 -89 -215 57 -150 255 -166 326 -25
78 151 -80 311 -237 240z"/>
<path d="M15534 16161 c-110 -50 -134 -199 -46 -283 69 -66 155 -73 231 -18
77 56 93 174 34 248 -56 70 -138 90 -219 53z"/>
<path d="M17533 16161 c-48 -22 -88 -77 -99 -134 -13 -77 48 -171 129 -197
139 -44 276 114 211 243 -49 97 -144 132 -241 88z"/>
<path d="M19534 16161 c-109 -49 -134 -198 -48 -284 87 -87 227 -66 282 43 78
155 -75 313 -234 241z"/>
<path d="M21533 16161 c-107 -49 -131 -188 -47 -280 81 -90 229 -70 284 39 77
152 -80 312 -237 241z"/>
<path d="M23533 16161 c-79 -36 -120 -135 -89 -215 57 -150 255 -166 326 -25
78 151 -80 311 -237 240z"/>
<path d="M25534 16161 c-110 -50 -134 -199 -46 -283 69 -66 155 -73 231 -18
77 56 93 174 34 248 -56 70 -138 90 -219 53z"/>
<path d="M27533 16161 c-48 -22 -88 -77 -99 -134 -13 -77 48 -171 129 -197
139 -44 276 114 211 243 -49 97 -144 132 -241 88z"/>
<path d="M29534 16161 c-109 -49 -134 -198 -48 -284 87 -87 227 -66 282 43 78
155 -75 313 -234 241z"/>
<path d="M31533 16161 c-107 -49 -131 -188 -47 -280 81 -90 229 -70 284 39 77
152 -80 312 -237 241z"/>
<path d="M33533 16161 c-79 -36 -120 -135 -89 -215 57 -150 255 -166 326 -25
78 151 -80 311 -237 240z"/>
<path d="M35534 16161 c-110 -50 -134 -199 -46 -283 69 -66 155 -73 231 -18
77 56 93 174 34 248 -56 70 -138 90 -219 53z"/>
<path d="M37533 16161 c-48 -22 -88 -77 -99 -134 -13 -77 48 -171 129 -197
139 -44 276 114 211 243 -49 97 -144 132 -241 88z"/>
<path d="M39534 16161 c-109 -49 -134 -198 -48 -284 87 -87 227 -66 282 43 78
155 -75 313 -234 241z"/>
<path d="M533 14161 c-109 -50 -131 -191 -45 -282 90 -94 241 -65 288 56 59
155 -92 294 -243 226z"/>
<path d="M2534 14161 c-148 -67 -124 -290 36 -332 145 -38 269 116 201 249
-48 94 -141 127 -237 83z"/>
<path d="M4533 14161 c-109 -50 -131 -191 -45 -282 87 -91 232 -68 283 45 24
53 24 107 0 154 -49 94 -141 127 -238 83z"/>
<path d="M6534 14161 c-148 -67 -124 -290 36 -332 145 -38 269 116 201 249
-48 94 -141 127 -237 83z"/>
<path d="M8534 14161 c-148 -67 -124 -290 36 -332 145 -38 269 116 201 249
-48 94 -141 127 -237 83z"/>
<path d="M10533 14161 c-109 -50 -131 -191 -45 -282 90 -94 241 -65 288 56 59
155 -92 294 -243 226z"/>
<path d="M12534 14161 c-148 -67 -124 -290 36 -332 145 -38 269 116 201 249
-48 94 -141 127 -237 83z"/>
<path d="M14533 14161 c-109 -50 -131 -191 -45 -282 87 -91 232 -68 283 45 24
53 24 107 0 154 -49 94 -141 127 -238 83z"/>
<path d="M16534 14161 c-148 -67 -124 -290 36 -332 145 -38 269 116 201 249
-48 94 -141 127 -237 83z"/>
<path d="M18534 14161 c-148 -67 -124 -290 36 -332 145 -38 269 116 201 249
-48 94 -141 127 -237 83z"/>
<path d="M20533 14161 c-109 -50 -131 -191 -45 -282 90 -94 241 -65 288 56 59
155 -92 294 -243 226z"/>
<path d="M22534 14161 c-148 -67 -124 -290 36 -332 145 -38 269 116 201 249
-48 94 -141 127 -237 83z"/>
<path d="M24533 14161 c-109 -50 -131 -191 -45 -282 87 -91 232 -68 283 45 24
53 24 107 0 154 -49 94 -141 127 -238 83z"/>
<path d="M26534 14161 c-148 -67 -124 -290 36 -332 145 -38 269 116 201 249
-48 94 -141 127 -237 83z"/>
<path d="M28534 14161 c-148 -67 -124 -290 36 -332 145 -38 269 116 201 249
-48 94 -141 127 -237 83z"/>
<path d="M30533 14161 c-109 -50 -131 -191 -45 -282 90 -94 241 -65 288 56 59
155 -92 294 -243 226z"/>
<path d="M32534 14161 c-148 -67 -124 -290 36 -332 145 -38 269 116 201 249
-48 94 -141 127 -237 83z"/>
<path d="M34533 14161 c-90 -41 -125 -157 -74 -246 28 -49 56 -71 113 -86 81
-21 164 18 199 95 24 53 24 107 0 154 -49 94 -141 127 -238 83z"/>
<path d="M36534 14161 c-148 -67 -124 -290 36 -332 145 -38 269 116 201 249
-48 94 -141 127 -237 83z"/>
<path d="M38534 14161 c-148 -67 -124 -290 36 -332 145 -38 269 116 201 249
-48 94 -141 127 -237 83z"/>
<path d="M1533 12161 c-107 -49 -131 -188 -47 -280 81 -90 229 -70 284 39 78
152 -79 312 -237 241z"/>
<path d="M3533 12161 c-79 -36 -120 -135 -89 -215 57 -150 255 -166 326 -25
78 151 -80 311 -237 240z"/>
<path d="M5534 12161 c-110 -50 -134 -199 -46 -283 69 -66 155 -73 231 -18 77
56 93 174 34 248 -56 70 -138 90 -219 53z"/>
<path d="M7533 12161 c-48 -22 -88 -77 -99 -134 -13 -77 48 -171 129 -197 139
-44 276 114 211 243 -49 97 -144 132 -241 88z"/>
<path d="M9534 12161 c-110 -50 -134 -198 -46 -284 90 -88 232 -64 283 47 71
156 -81 308 -237 237z"/>
<path d="M11533 12161 c-107 -49 -131 -188 -47 -280 81 -90 229 -70 284 39 78
152 -79 312 -237 241z"/>
<path d="M13533 12161 c-48 -22 -88 -77 -99 -134 -13 -77 48 -171 129 -197
139 -44 276 114 211 243 -49 97 -144 132 -241 88z"/>
<path d="M15534 12162 c-144 -68 -126 -282 29 -332 118 -37 239 67 224 196
-13 115 -145 186 -253 136z"/>
<path d="M17533 12161 c-48 -22 -88 -77 -99 -134 -19 -107 96 -222 204 -202
119 21 186 149 133 253 -47 92 -143 125 -238 83z"/>
<path d="M19534 12161 c-110 -50 -134 -198 -46 -284 90 -88 232 -64 283 47 71
156 -81 308 -237 237z"/>
<path d="M21533 12161 c-107 -49 -131 -188 -47 -280 81 -90 229 -70 284 39 78
152 -79 312 -237 241z"/>
<path d="M23533 12161 c-48 -22 -88 -77 -99 -134 -13 -77 48 -171 129 -197
139 -44 276 114 211 243 -49 97 -144 132 -241 88z"/>
<path d="M25534 12162 c-144 -68 -126 -282 29 -332 118 -37 239 67 224 196
-13 115 -145 186 -253 136z"/>
<path d="M27533 12161 c-48 -22 -88 -77 -99 -134 -19 -107 96 -222 204 -202
119 21 186 149 133 253 -47 92 -143 125 -238 83z"/>
<path d="M29534 12161 c-110 -50 -134 -198 -46 -284 90 -88 232 -64 283 47 71
156 -81 308 -237 237z"/>
<path d="M31533 12161 c-107 -49 -131 -188 -47 -280 81 -90 229 -70 284 39 78
152 -79 312 -237 241z"/>
<path d="M33533 12161 c-48 -22 -88 -77 -99 -134 -13 -77 48 -171 129 -197
139 -44 276 114 211 243 -49 97 -144 132 -241 88z"/>
<path d="M35534 12162 c-144 -68 -126 -282 29 -332 118 -37 239 67 224 196
-13 115 -145 186 -253 136z"/>
<path d="M37533 12161 c-48 -22 -88 -77 -99 -134 -19 -107 96 -222 204 -202
119 21 186 149 133 253 -47 92 -143 125 -238 83z"/>
<path d="M39534 12161 c-109 -49 -134 -198 -48 -284 87 -87 227 -66 282 43 78
155 -75 313 -234 241z"/>
<path d="M534 10161 c-110 -50 -134 -199 -46 -283 69 -66 155 -73 231 -18 77
56 93 174 34 248 -56 71 -137 90 -219 53z"/>
<path d="M2534 10161 c-148 -67 -124 -290 36 -332 145 -38 269 116 201 249
-48 94 -141 127 -237 83z"/>
<path d="M4533 10161 c-45 -21 -87 -75 -98 -128 -16 -80 51 -183 135 -204 176
-45 295 178 163 303 -54 51 -127 62 -200 29z"/>
<path d="M6534 10161 c-148 -67 -124 -290 36 -332 145 -38 269 116 201 249
-48 94 -141 127 -237 83z"/>
<path d="M8534 10161 c-148 -67 -124 -290 36 -332 145 -38 269 116 201 249
-48 94 -141 127 -237 83z"/>
<path d="M10534 10161 c-110 -50 -134 -199 -46 -283 69 -66 155 -73 231 -18
77 56 93 174 34 248 -56 71 -137 90 -219 53z"/>
<path d="M12534 10161 c-148 -67 -124 -290 36 -332 145 -38 269 116 201 249
-48 94 -141 127 -237 83z"/>
<path d="M14533 10161 c-45 -21 -87 -75 -98 -128 -16 -80 51 -183 135 -204
176 -45 295 178 163 303 -54 51 -127 62 -200 29z"/>
<path d="M16534 10161 c-148 -67 -124 -290 36 -332 145 -38 269 116 201 249
-48 94 -141 127 -237 83z"/>
<path d="M18534 10161 c-148 -67 -124 -290 36 -332 145 -38 269 116 201 249
-48 94 -141 127 -237 83z"/>
<path d="M20534 10161 c-110 -50 -134 -199 -46 -283 69 -66 155 -73 231 -18
77 56 93 174 34 248 -56 71 -137 90 -219 53z"/>
<path d="M22534 10161 c-148 -67 -124 -290 36 -332 145 -38 269 116 201 249
-48 94 -141 127 -237 83z"/>
<path d="M24533 10161 c-45 -21 -87 -75 -98 -128 -16 -80 51 -183 135 -204
176 -45 295 178 163 303 -54 51 -127 62 -200 29z"/>
<path d="M26534 10161 c-148 -67 -124 -290 36 -332 145 -38 269 116 201 249
-48 94 -141 127 -237 83z"/>
<path d="M28534 10161 c-148 -67 -124 -290 36 -332 145 -38 269 116 201 249
-48 94 -141 127 -237 83z"/>
<path d="M30534 10161 c-110 -50 -134 -199 -46 -283 69 -66 155 -73 231 -18
77 56 93 174 34 248 -56 71 -137 90 -219 53z"/>
<path d="M32534 10161 c-148 -67 -124 -290 36 -332 145 -38 269 116 201 249
-48 94 -141 127 -237 83z"/>
<path d="M34533 10161 c-45 -21 -87 -75 -98 -128 -16 -80 51 -183 135 -204
176 -45 295 178 163 303 -54 51 -127 62 -200 29z"/>
<path d="M36534 10161 c-148 -67 -124 -290 36 -332 145 -38 269 116 201 249
-48 94 -141 127 -237 83z"/>
<path d="M38534 10161 c-148 -67 -124 -290 36 -332 145 -38 269 116 201 249
-48 94 -141 127 -237 83z"/>
<path d="M1533 8161 c-107 -49 -131 -188 -47 -280 81 -90 229 -70 284 39 78
152 -79 312 -237 241z"/>
<path d="M3533 8161 c-48 -22 -88 -77 -99 -134 -13 -77 48 -171 129 -197 139
-44 276 114 211 243 -49 97 -144 132 -241 88z"/>
<path d="M5533 8161 c-107 -49 -131 -188 -48 -280 86 -95 245 -66 290 53 59
155 -91 295 -242 227z"/>
<path d="M7533 8161 c-48 -22 -88 -77 -99 -134 -13 -77 48 -171 129 -197 139
-44 276 114 211 243 -49 97 -144 132 -241 88z"/>
<path d="M9533 8161 c-109 -50 -131 -191 -45 -282 87 -91 232 -68 283 45 24
53 24 107 0 154 -47 92 -144 125 -238 83z"/>
<path d="M11533 8161 c-107 -49 -131 -188 -47 -280 81 -90 229 -70 284 39 78
152 -79 312 -237 241z"/>
<path d="M13533 8161 c-48 -22 -88 -77 -99 -134 -13 -77 48 -171 129 -197 139
-44 276 114 211 243 -49 97 -144 132 -241 88z"/>
<path d="M15533 8161 c-107 -49 -131 -188 -48 -280 86 -95 245 -66 290 53 59
155 -91 295 -242 227z"/>
<path d="M17533 8161 c-48 -22 -88 -77 -99 -134 -13 -77 48 -171 129 -197 139
-44 276 114 211 243 -49 97 -144 132 -241 88z"/>
<path d="M19533 8161 c-109 -50 -131 -191 -45 -282 87 -91 232 -68 283 45 24
53 24 107 0 154 -47 92 -144 125 -238 83z"/>
<path d="M21533 8161 c-107 -49 -131 -188 -47 -280 81 -90 229 -70 284 39 78
152 -79 312 -237 241z"/>
<path d="M23533 8161 c-48 -22 -88 -77 -99 -134 -13 -77 48 -171 129 -197 139
-44 276 114 211 243 -49 97 -144 132 -241 88z"/>
<path d="M25533 8161 c-107 -49 -131 -188 -48 -280 86 -95 245 -66 290 53 59
155 -91 295 -242 227z"/>
<path d="M27533 8161 c-48 -22 -88 -77 -99 -134 -13 -77 48 -171 129 -197 139
-44 276 114 211 243 -49 97 -144 132 -241 88z"/>
<path d="M29533 8161 c-109 -50 -131 -191 -45 -282 87 -91 232 -68 283 45 24
53 24 107 0 154 -47 92 -144 125 -238 83z"/>
<path d="M31533 8161 c-107 -49 -131 -188 -47 -280 81 -90 229 -70 284 39 78
152 -79 312 -237 241z"/>
<path d="M33533 8161 c-48 -22 -88 -77 -99 -134 -13 -77 48 -171 129 -197 139
-44 276 114 211 243 -49 97 -144 132 -241 88z"/>
<path d="M35533 8161 c-107 -49 -131 -188 -48 -280 86 -95 245 -66 290 53 59
155 -91 295 -242 227z"/>
<path d="M37533 8161 c-48 -22 -88 -77 -99 -134 -13 -77 48 -171 129 -197 139
-44 276 114 211 243 -49 97 -144 132 -241 88z"/>
<path d="M39534 8161 c-110 -50 -134 -198 -46 -284 90 -88 232 -64 283 47 24
53 24 107 0 154 -47 91 -144 125 -237 83z"/>
<path d="M533 6161 c-109 -50 -131 -191 -45 -282 90 -94 241 -65 288 56 59
155 -92 294 -243 226z"/>
<path d="M2534 6161 c-148 -67 -124 -290 36 -332 145 -38 269 116 201 249 -48
94 -141 127 -237 83z"/>
<path d="M4533 6161 c-90 -41 -125 -157 -74 -246 28 -49 56 -71 113 -86 81
-21 164 18 199 95 24 53 24 107 0 154 -49 94 -141 127 -238 83z"/>
<path d="M6534 6161 c-148 -67 -124 -290 36 -332 145 -38 269 116 201 249 -48
94 -141 127 -237 83z"/>
<path d="M8534 6161 c-148 -67 -124 -290 36 -332 145 -38 269 116 201 249 -48
94 -141 127 -237 83z"/>
<path d="M10533 6161 c-109 -50 -131 -191 -45 -282 90 -94 241 -65 288 56 59
155 -92 294 -243 226z"/>
<path d="M12534 6161 c-148 -67 -124 -290 36 -332 145 -38 269 116 201 249
-48 94 -141 127 -237 83z"/>
<path d="M14533 6161 c-90 -41 -125 -157 -74 -246 28 -49 56 -71 113 -86 81
-21 164 18 199 95 24 53 24 107 0 154 -49 94 -141 127 -238 83z"/>
<path d="M16534 6161 c-148 -67 -124 -290 36 -332 145 -38 269 116 201 249
-48 94 -141 127 -237 83z"/>
<path d="M18534 6161 c-148 -67 -124 -290 36 -332 145 -38 269 116 201 249
-48 94 -141 127 -237 83z"/>
<path d="M20533 6161 c-109 -50 -131 -191 -45 -282 90 -94 241 -65 288 56 59
155 -92 294 -243 226z"/>
<path d="M22534 6161 c-148 -67 -124 -290 36 -332 145 -38 269 116 201 249
-48 94 -141 127 -237 83z"/>
<path d="M24533 6161 c-90 -41 -125 -157 -74 -246 28 -49 56 -71 113 -86 81
-21 164 18 199 95 24 53 24 107 0 154 -49 94 -141 127 -238 83z"/>
<path d="M26534 6161 c-148 -67 -124 -290 36 -332 145 -38 269 116 201 249
-48 94 -141 127 -237 83z"/>
<path d="M28534 6161 c-148 -67 -124 -290 36 -332 145 -38 269 116 201 249
-48 94 -141 127 -237 83z"/>
<path d="M30533 6161 c-109 -50 -131 -191 -45 -282 90 -94 241 -65 288 56 59
155 -92 294 -243 226z"/>
<path d="M32534 6161 c-148 -67 -124 -290 36 -332 145 -38 269 116 201 249
-48 94 -141 127 -237 83z"/>
<path d="M34533 6161 c-90 -41 -125 -157 -74 -246 28 -49 56 -71 113 -86 81
-21 164 18 199 95 24 53 24 107 0 154 -49 94 -141 127 -238 83z"/>
<path d="M36534 6161 c-148 -67 -124 -290 36 -332 145 -38 269 116 201 249
-48 94 -141 127 -237 83z"/>
<path d="M38534 6161 c-148 -67 -124 -290 36 -332 145 -38 269 116 201 249
-48 94 -141 127 -237 83z"/>
<path d="M1533 4161 c-107 -49 -131 -188 -47 -280 81 -90 229 -70 284 39 77
152 -80 312 -237 241z"/>
<path d="M3533 4161 c-79 -36 -120 -135 -89 -215 57 -150 255 -166 326 -25 77
151 -80 311 -237 240z"/>
<path d="M5534 4162 c-144 -68 -126 -282 29 -332 118 -37 239 67 224 196 -13
115 -145 186 -253 136z"/>
<path d="M7533 4161 c-79 -36 -120 -135 -89 -215 57 -150 255 -166 326 -25 77
151 -80 311 -237 240z"/>
<path d="M9534 4161 c-110 -50 -134 -198 -46 -284 90 -88 232 -64 283 47 56
123 -30 257 -165 256 -17 0 -49 -9 -72 -19z"/>
<path d="M11533 4161 c-107 -49 -131 -188 -47 -280 81 -90 229 -70 284 39 77
152 -80 312 -237 241z"/>
<path d="M13533 4161 c-79 -36 -120 -135 -89 -215 57 -150 255 -166 326 -25
77 151 -80 311 -237 240z"/>
<path d="M15534 4162 c-144 -68 -126 -282 29 -332 118 -37 239 67 224 196 -13
115 -145 186 -253 136z"/>
<path d="M17533 4161 c-48 -22 -88 -77 -99 -134 -19 -107 96 -222 204 -202
119 21 186 149 133 253 -47 92 -143 125 -238 83z"/>
<path d="M19534 4161 c-110 -50 -134 -198 -46 -284 90 -88 232 -64 283 47 56
123 -30 257 -165 256 -17 0 -49 -9 -72 -19z"/>
<path d="M21533 4161 c-107 -49 -131 -188 -47 -280 81 -90 229 -70 284 39 77
152 -80 312 -237 241z"/>
<path d="M23533 4161 c-79 -36 -120 -135 -89 -215 57 -150 255 -166 326 -25
77 151 -80 311 -237 240z"/>
<path d="M25534 4162 c-144 -68 -126 -282 29 -332 118 -37 239 67 224 196 -13
115 -145 186 -253 136z"/>
<path d="M27533 4161 c-48 -22 -88 -77 -99 -134 -19 -107 96 -222 204 -202
119 21 186 149 133 253 -47 92 -143 125 -238 83z"/>
<path d="M29534 4161 c-110 -50 -134 -198 -46 -284 90 -88 232 -64 283 47 56
123 -30 257 -165 256 -17 0 -49 -9 -72 -19z"/>
<path d="M31533 4161 c-107 -49 -131 -188 -47 -280 81 -90 229 -70 284 39 77
152 -80 312 -237 241z"/>
<path d="M33533 4161 c-79 -36 -120 -135 -89 -215 57 -150 255 -166 326 -25
77 151 -80 311 -237 240z"/>
<path d="M35534 4162 c-144 -68 -126 -282 29 -332 118 -37 239 67 224 196 -13
115 -145 186 -253 136z"/>
<path d="M37533 4161 c-48 -22 -88 -77 -99 -134 -19 -107 96 -222 204 -202
119 21 186 149 133 253 -47 92 -143 125 -238 83z"/>
<path d="M39534 4161 c-109 -49 -134 -198 -48 -284 87 -87 227 -66 282 43 77
154 -76 313 -234 241z"/>
<path d="M533 2161 c-147 -67 -122 -293 38 -331 89 -22 173 21 205 105 59 155
-92 294 -243 226z"/>
<path d="M2533 2161 c-45 -21 -87 -75 -98 -128 -17 -83 49 -182 135 -203 182
-44 296 179 158 307 -50 46 -125 55 -195 24z"/>
<path d="M4533 2161 c-147 -67 -122 -293 38 -331 85 -21 165 17 200 94 24 53
24 107 0 154 -49 94 -141 127 -238 83z"/>
<path d="M6533 2161 c-45 -21 -87 -75 -98 -128 -17 -83 49 -182 135 -203 182
-44 296 179 158 307 -50 46 -125 55 -195 24z"/>
<path d="M8533 2161 c-45 -21 -87 -75 -98 -128 -17 -83 49 -182 135 -203 182
-44 296 179 158 307 -50 46 -125 55 -195 24z"/>
<path d="M10533 2161 c-147 -67 -122 -293 38 -331 89 -22 173 21 205 105 59
155 -92 294 -243 226z"/>
<path d="M12533 2161 c-45 -21 -87 -75 -98 -128 -17 -83 49 -182 135 -203 182
-44 296 179 158 307 -50 46 -125 55 -195 24z"/>
<path d="M14533 2161 c-147 -67 -122 -293 38 -331 85 -21 165 17 200 94 24 53
24 107 0 154 -49 94 -141 127 -238 83z"/>
<path d="M16533 2161 c-45 -21 -87 -75 -98 -128 -17 -83 49 -182 135 -203 182
-44 296 179 158 307 -50 46 -125 55 -195 24z"/>
<path d="M18533 2161 c-45 -21 -87 -75 -98 -128 -17 -83 49 -182 135 -203 182
-44 296 179 158 307 -50 46 -125 55 -195 24z"/>
<path d="M20533 2161 c-147 -67 -122 -293 38 -331 89 -22 173 21 205 105 59
155 -92 294 -243 226z"/>
<path d="M22533 2161 c-45 -21 -87 -75 -98 -128 -17 -83 49 -182 135 -203 182
-44 296 179 158 307 -50 46 -125 55 -195 24z"/>
<path d="M24533 2161 c-147 -67 -122 -293 38 -331 85 -21 165 17 200 94 24 53
24 107 0 154 -49 94 -141 127 -238 83z"/>
<path d="M26533 2161 c-45 -21 -87 -75 -98 -128 -17 -83 49 -182 135 -203 182
-44 296 179 158 307 -50 46 -125 55 -195 24z"/>
<path d="M28533 2161 c-45 -21 -87 -75 -98 -128 -17 -83 49 -182 135 -203 182
-44 296 179 158 307 -50 46 -125 55 -195 24z"/>
<path d="M30533 2161 c-147 -67 -122 -293 38 -331 89 -22 173 21 205 105 59
155 -92 294 -243 226z"/>
<path d="M32533 2161 c-45 -21 -87 -75 -98 -128 -17 -83 49 -182 135 -203 182
-44 296 179 158 307 -50 46 -125 55 -195 24z"/>
<path d="M34533 2161 c-147 -67 -122 -293 38 -331 85 -21 165 17 200 94 24 53
24 107 0 154 -49 94 -141 127 -238 83z"/>
<path d="M36533 2161 c-45 -21 -87 -75 -98 -128 -17 -83 49 -182 135 -203 182
-44 296 179 158 307 -50 46 -125 55 -195 24z"/>
<path d="M38533 2161 c-45 -21 -87 -75 -98 -128 -17 -83 49 -182 135 -203 182
-44 296 179 158 307 -50 46 -125 55 -195 24z"/>
<path d="M1533 161 c-46 -21 -87 -75 -98 -128 l-7 -33 181 0 c176 0 181 1 181
20 0 12 -7 35 -16 53 -49 97 -144 132 -241 88z"/>
<path d="M3533 161 c-46 -21 -87 -75 -98 -128 l-7 -33 181 0 c176 0 181 1 181
20 0 12 -7 35 -16 53 -49 97 -144 132 -241 88z"/>
<path d="M5533 161 c-46 -21 -87 -75 -98 -128 l-7 -33 183 0 182 0 -6 37 c-4
20 -19 53 -35 72 -55 69 -138 88 -219 52z"/>
<path d="M7533 161 c-46 -21 -87 -75 -98 -128 l-7 -33 181 0 c176 0 181 1 181
20 0 12 -7 35 -16 53 -49 97 -144 132 -241 88z"/>
<path d="M9533 161 c-46 -21 -87 -75 -98 -128 l-7 -33 181 0 c176 0 181 1 181
20 0 27 -32 90 -56 111 -58 51 -130 62 -201 30z"/>
<path d="M11533 161 c-46 -21 -87 -75 -98 -128 l-7 -33 181 0 c176 0 181 1
181 20 0 12 -7 35 -16 53 -49 97 -144 132 -241 88z"/>
<path d="M13533 161 c-46 -21 -87 -75 -98 -128 l-7 -33 181 0 c176 0 181 1
181 20 0 12 -7 35 -16 53 -49 97 -144 132 -241 88z"/>
<path d="M15533 161 c-46 -21 -87 -75 -98 -128 l-7 -33 183 0 182 0 -6 37 c-4
20 -19 53 -35 72 -55 69 -138 88 -219 52z"/>
<path d="M17533 161 c-46 -21 -87 -75 -98 -128 l-7 -33 181 0 c176 0 181 1
181 20 0 12 -7 35 -16 53 -49 97 -144 132 -241 88z"/>
<path d="M19533 161 c-46 -21 -87 -75 -98 -128 l-7 -33 181 0 c176 0 181 1
181 20 0 27 -32 90 -56 111 -58 51 -130 62 -201 30z"/>
<path d="M21533 161 c-46 -21 -87 -75 -98 -128 l-7 -33 181 0 c176 0 181 1
181 20 0 12 -7 35 -16 53 -49 97 -144 132 -241 88z"/>
<path d="M23533 161 c-46 -21 -87 -75 -98 -128 l-7 -33 181 0 c176 0 181 1
181 20 0 12 -7 35 -16 53 -49 97 -144 132 -241 88z"/>
<path d="M25533 161 c-46 -21 -87 -75 -98 -128 l-7 -33 183 0 182 0 -6 37 c-4
20 -19 53 -35 72 -55 69 -138 88 -219 52z"/>
<path d="M27533 161 c-46 -21 -87 -75 -98 -128 l-7 -33 181 0 c176 0 181 1
181 20 0 12 -7 35 -16 53 -49 97 -144 132 -241 88z"/>
<path d="M29533 161 c-46 -21 -87 -75 -98 -128 l-7 -33 181 0 c176 0 181 1
181 20 0 27 -32 90 -56 111 -58 51 -130 62 -201 30z"/>
<path d="M31533 161 c-46 -21 -87 -75 -98 -128 l-7 -33 181 0 c176 0 181 1
181 20 0 12 -7 35 -16 53 -49 97 -144 132 -241 88z"/>
<path d="M33533 161 c-46 -21 -87 -75 -98 -128 l-7 -33 181 0 c176 0 181 1
181 20 0 12 -7 35 -16 53 -49 97 -144 132 -241 88z"/>
<path d="M35533 161 c-46 -21 -87 -75 -98 -128 l-7 -33 183 0 182 0 -6 37 c-4
20 -19 53 -35 72 -55 69 -138 88 -219 52z"/>
<path d="M37533 161 c-46 -21 -87 -75 -98 -128 l-7 -33 181 0 c176 0 181 1
181 20 0 12 -7 35 -16 53 -49 97 -144 132 -241 88z"/>
<path d="M39533 161 c-46 -21 -87 -75 -98 -128 l-7 -33 181 0 c176 0 181 1
181 20 0 27 -32 90 -56 111 -58 51 -130 62 -201 30z"/>
</g>
</svg>
